<svg width="1586" height="1950" xmlns="http://www.w3.org/2000/svg"><g id="Page-1" fill="none" fill-rule="evenodd"><g id="Artboard"><path d="M952.8 1166.8c0-14.6-4.2-23.6-19.8-25.4l.4-.4c22.6.4 28.8 7.2 28.8 29v30.2c0 13.4 1.4 19.8 16 23.4v.4c-14.4 3.6-16 10-16 23.2v32.2c0 21-7.8 27-28.8 27.6l-.4-.399c16-2.4 19.8-10.4 19.8-25.601v-32.2c0-13.6 1.8-21.4 16.8-24.8v-.4c-15.2-3.6-16.8-12-16.8-25.6v-31.2z" id="Shape" fill="#000" fill-rule="nonzero" transform="matrix(-1 0 0 1 1911.2 0)"/><circle id="Oval" stroke="#15B5D5" stroke-width="5" cx="196" cy="237" r="125"/><circle id="Oval" stroke="#15B5D5" stroke-width="5" cx="196" cy="237" r="125"/><circle id="Oval" stroke="#15B5D5" stroke-width="7" cx="779" cy="237" r="125"/><circle id="Oval" stroke="#15B5D5" stroke-width="5" cx="772" cy="1225" r="125"/><path d="M776.5 365.5v232" id="Line-3" stroke="#15B5D5" stroke-width="7" stroke-linecap="square"/><path id="Line-3-decoration-1" d="M776.5 597.5l3-10.8h-6l3 10.8z" stroke="#15B5D5" stroke-width="7" stroke-linecap="square"/><circle id="Oval" stroke="#15B5D5" stroke-width="7" cx="780" cy="762" r="150"/><circle id="Oval" stroke="#15B5D5" stroke-width="7" cx="771" cy="1683" r="150"/><circle id="Oval" stroke="#15B5D5" stroke-width="5" cx="1362" cy="237" r="125"/><g id="Person_icon_BLACK-01" transform="translate(744 150)" fill="#000" fill-rule="nonzero"><g id="g9005_8_" transform="matrix(1 0 0 -1 19 28)"><path d="M14.27.475c7.544 0 13.663 6.119 13.663 13.664 0 7.551-6.12 13.668-13.663 13.668C6.72 27.807.606 21.688.606 14.14.608 6.594 6.72.475 14.27.475" id="path9007_8_"/></g><g id="g9009_8_" transform="matrix(1 0 0 -1 0 169)"><path d="M48.78 137.77c9.8 0 17.83-7.914 17.83-17.663V77.34c0-3.33-2.633-6.032-5.985-6.032-3.347 0-6.069 2.704-6.069 6.032v38.562h-3.128V8.609c0-4.473-3.668-8.093-8.158-8.093-4.496 0-8.133 3.62-8.133 8.093v62.3h-3.335v-62.3c0-4.473-3.637-8.093-8.125-8.093-4.49 0-8.133 3.62-8.133 8.093 0 6.61-.071 107.292-.071 107.292h-3.088V77.339c0-3.33-2.716-6.032-6.069-6.032-3.35 0-5.985 2.704-5.985 6.032v42.768c0 9.749 8.027 17.663 17.836 17.663H48.78z" id="path9011_8_"/></g></g><text id="Robert-Lee-Mitchell" font-family="Helvetica-Bold, Helvetica" font-size="36" font-weight="bold" fill="#000"><tspan x="138.501" y="225">Robert</tspan>  <tspan x="100.453" y="268" font-family="Helvetica" font-weight="normal">Lee Mitchell</tspan></text><text id="******" font-family="Helvetica-Bold, Helvetica" font-size="64" font-weight="bold" fill="#000"><tspan x="1287.281" y="252">******</tspan></text><path d="M323.5 235.5h317" id="Line" stroke="#15B5D5" stroke-width="7" stroke-linecap="square"/><path id="Line-decoration-1" d="M640.5 235.5l-10.8-3v6l10.8-3z" stroke="#15B5D5" stroke-width="7" stroke-linecap="square"/><path d="M1233.5 237.5h-318" id="Line-2" stroke="#15B5D5" stroke-width="7" stroke-linecap="square"/><path id="Line-2-decoration-1" d="M915.5 237.5l10.8 3v-6l-10.8 3z" stroke="#15B5D5" stroke-width="7" stroke-linecap="square"/><text id="Master-Key" font-family="Helvetica-Bold, Helvetica" font-size="36" font-weight="bold" fill="#000"><tspan x="683.453" y="829">Master Key</tspan></text><text id="google.com" font-family="Helvetica-Bold, Helvetica" font-size="36" font-weight="bold" fill="#000"><tspan x="675.496" y="1234">google.com</tspan></text><text id="Unique-Site-Password" font-family="Helvetica-Bold, Helvetica" font-size="36" font-weight="bold" fill="#000"><tspan x="673.491" y="1675">Unique Site </tspan> <tspan x="687.466" y="1718">Password</tspan></text><path d="M193.2 352.4c0-14.6-4.2-23.6-19.8-25.4l.4-.4c22.6.4 28.8 7.2 28.8 29v30.2c0 13.4 1.4 19.8 16 23.4v.4c-14.4 3.6-16 10-16 23.2V465c0 21-7.8 27-28.8 27.6l-.4-.399c16-2.4 19.8-10.4 19.8-25.601v-32.2c0-13.6 1.8-21.4 16.8-24.8v-.4c-15.2-3.6-16.8-12-16.8-25.6v-31.2z" id="Shape" fill="#000" fill-rule="nonzero" transform="matrix(0 -1 -1 0 605.6 605.6)"/><text id="Full-Name" font-family="Helvetica" font-size="36" fill="#000"><tspan x="114.48" y="472">Full Name</tspan></text><path d="M1359.2 352.4c0-14.6-4.2-23.6-19.8-25.4l.4-.4c22.6.4 28.8 7.2 28.8 29v30.2c0 13.4 1.4 19.8 16 23.4v.4c-14.4 3.6-16 10-16 23.2V465c0 21-7.8 27-28.8 27.6l-.4-.399c16-2.4 19.8-10.4 19.8-25.601v-32.2c0-13.6 1.8-21.4 16.8-24.8v-.4c-15.2-3.6-16.8-12-16.8-25.6v-31.2z" id="Shape" fill="#000" fill-rule="nonzero" transform="scale(1 -1) rotate(90 1771.6 0)"/><text id="Master-Password" font-family="Helvetica" font-size="36" fill="#000"><tspan x="1223.457" y="472">Master Password</tspan></text><text id="Site-Name" font-family="Helvetica" font-size="36" fill="#000"><tspan x="981.468" y="1234">Site Name</tspan></text><path d="M772.5 1350.5v170" id="Line-3" stroke="#15B5D5" stroke-width="7" stroke-linecap="square"/><path id="Line-3-decoration-1" d="M772.5 1520.5l3-10.8h-6l3 10.8z" stroke="#15B5D5" stroke-width="7" stroke-linecap="square"/><path d="M773.5 912.5v175" id="Line-3" stroke="#15B5D5" stroke-width="7" stroke-linecap="square"/><path id="Line-3-decoration-1" d="M773.5 1087.5l3-10.8h-6l3 10.8z" stroke="#15B5D5" stroke-width="7" stroke-linecap="square"/><g id="Simpleicons_Interface_key-tool-1" transform="translate(714 648)" fill="#000" fill-rule="nonzero"><path d="M56.54 101.007l-9.516-9.499 32.747-32.695c11.898 6.402 26.985 4.723 37.042-5.3 12.25-12.246 12.25-32.1 0-44.33-12.265-12.244-32.154-12.244-44.42 0-10.04 10.025-11.713 25.105-5.305 36.965l-64.47 64.375c-3.49 3.482-3.49 9.185 0 12.665 3.487 3.482 9.2 3.482 12.687 0l9.514 9.5a4.49 4.49 0 0 0 6.344 0l6.344-6.332a4.465 4.465 0 0 0 0-6.332l-9.515-9.5 6.342-6.352 9.52 9.518a4.49 4.49 0 0 0 6.343 0l6.343-6.332a4.494 4.494 0 0 0 0-6.35zM85.08 21.85c5.257-5.248 13.792-5.248 19.048 0 5.237 5.23 5.237 13.766 0 18.998-5.256 5.23-13.791 5.23-19.048 0-5.24-5.231-5.24-13.768 0-18.998z" id="Shape"/></g></g></g></svg>